<?xml version="1.0" encoding="UTF-8" standalone="no"?>
<svg
   width="24"
   height="24"
   viewBox="0 0 24 24"
   version="1.1"
   id="svg400"
   sodipodi:docname="iconmonstr-instagram-15.svg"
   inkscape:version="1.1 (c68e22c387, 2021-05-23)"
   xmlns:inkscape="http://www.inkscape.org/namespaces/inkscape"
   xmlns:sodipodi="http://sodipodi.sourceforge.net/DTD/sodipodi-0.dtd"
   xmlns="http://www.w3.org/2000/svg"
   xmlns:svg="http://www.w3.org/2000/svg">
  <defs
     id="defs404" />
  <sodipodi:namedview
     id="namedview402"
     pagecolor="#ffffff"
     bordercolor="#666666"
     borderopacity="1.0"
     inkscape:pageshadow="2"
     inkscape:pageopacity="0.0"
     inkscape:pagecheckerboard="0"
     showgrid="false"
     inkscape:zoom="34.666667"
     inkscape:cx="11.985577"
     inkscape:cy="12.014423"
     inkscape:window-width="1920"
     inkscape:window-height="1017"
     inkscape:window-x="-8"
     inkscape:window-y="32"
     inkscape:window-maximized="1"
     inkscape:current-layer="svg400" />
  <path
     d="M12 2c5.514 0 10 4.486 10 10s-4.486 10-10 10-10-4.486-10-10 4.486-10 10-10zm0-2c-6.627 0-12 5.373-12 12s5.373 12 12 12 12-5.373 12-12-5.373-12-12-12zm0 7.082c1.602 0 1.792.006 2.425.035 1.627.074 2.385.845 2.46 2.459.028.633.034.822.034 2.424s-.006 1.792-.034 2.424c-.075 1.613-.832 2.386-2.46 2.46-.633.028-.822.035-2.425.035-1.602 0-1.792-.006-2.424-.035-1.63-.075-2.385-.849-2.46-2.46-.028-.632-.035-.822-.035-2.424s.007-1.792.035-2.424c.074-1.615.832-2.386 2.46-2.46.632-.029.822-.034 2.424-.034zm0-1.082c-1.63 0-1.833.007-2.474.037-2.18.1-3.39 1.309-3.49 3.489-.029.641-.036.845-.036 2.474 0 1.63.007 1.834.036 2.474.1 2.179 1.31 3.39 3.49 3.49.641.029.844.036 2.474.036 1.63 0 1.834-.007 2.475-.036 2.176-.1 3.391-1.309 3.489-3.49.029-.64.036-.844.036-2.474 0-1.629-.007-1.833-.036-2.474-.098-2.177-1.309-3.39-3.489-3.489-.641-.03-.845-.037-2.475-.037zm0 2.919c-1.701 0-3.081 1.379-3.081 3.081s1.38 3.081 3.081 3.081 3.081-1.379 3.081-3.081c0-1.701-1.38-3.081-3.081-3.081zm0 5.081c-1.105 0-2-.895-2-2 0-1.104.895-2 2-2 1.104 0 2.001.895 2.001 2s-.897 2-2.001 2zm3.202-5.922c-.397 0-.72.322-.72.72 0 .397.322.72.72.72.398 0 .721-.322.721-.72 0-.398-.322-.72-.721-.72z"
     id="path398" />
  <path
     style="fill:#ffffff;stroke-width:0.0288462"
     d="M 11.451923,23.968809 C 9.7431098,23.893023 8.1350815,23.468301 6.5913462,22.685004 5.3689018,22.064731 4.3837659,21.337912 3.4036636,20.333177 1.5070367,18.388884 0.3772669,15.957721 0.06740382,13.153846 0.01860941,12.712318 0.01863977,11.308225 0.06745371,10.846154 0.31757149,8.4785455 1.1901549,6.3400699 2.6569379,4.5 3.0089769,4.0583694 3.9565656,3.0974158 4.3759119,2.7567811 6.165118,1.3034116 8.242708,0.39935198 10.442308,0.11699969 c 0.750392,-0.09632435 1.877084,-0.122376 2.567307,-0.05936197 2.439414,0.22270642 4.583636,1.08476438 6.519231,2.62097608 0.460858,0.365766 1.427692,1.3364048 1.814248,1.8213862 1.468969,1.8430021 2.321852,3.9330577 2.589657,6.346154 0.04816,0.43391 0.04816,1.873782 0,2.307692 -0.311472,2.806566 -1.440402,5.235796 -3.336415,7.179293 -0.610347,0.625633 -1.083719,1.031078 -1.745374,1.494917 -1.790444,1.255152 -4.077339,2.046691 -6.151806,2.12926 -0.210016,0.0084 -0.466223,0.01926 -0.569348,0.02422 -0.103125,0.005 -0.408173,-7.64e-4 -0.677885,-0.01273 z M 12.9375,21.967757 c 1.814235,-0.176427 3.49084,-0.808163 4.933004,-1.858731 2.337486,-1.70278 3.802416,-4.25592 4.098296,-7.14268 0.04562,-0.445101 0.04562,-1.487591 0,-1.932692 C 21.668531,8.1040693 20.170933,5.5309059 17.767888,3.8156709 16.332143,2.7908716 14.59231,2.1638579 12.777153,2.0170741 12.253759,1.9747495 11.219313,1.9978787 10.745192,2.0625067 8.7117865,2.3396829 6.940018,3.1371888 5.4129816,4.4626336 3.6977986,5.9513873 2.5160939,8.0495582 2.136476,10.280221 2.0265572,10.926113 1.9955043,11.304941 1.9955043,12 c 0,0.695059 0.031053,1.073888 0.1409717,1.719779 0.6283929,3.692483 3.3581391,6.775331 6.9657372,7.866779 1.1994578,0.362886 2.5961128,0.501703 3.8352868,0.381199 z"
     id="path443" />
  <path
     style="fill:#ffffff;stroke-width:0.0288462"
     d="M 10.399038,17.971132 C 9.3527094,17.949763 9.0329042,17.923907 8.6231368,17.827554 8.2819202,17.747321 8.0528855,17.663675 7.7451923,17.50692 6.8655481,17.058784 6.3199349,16.261907 6.1274841,15.144231 6.0429606,14.653352 6.0154592,13.881461 6.0154599,12 6.0154609,9.1051555 6.0710273,8.5951972 6.4759323,7.7740385 6.8947157,6.9247338 7.6800932,6.3625952 8.751806,6.1450685 9.2445211,6.0450616 9.8275687,6.0231834 12,6.0231834 c 2.172431,0 2.755479,0.021878 3.248194,0.1218851 1.073506,0.2178907 1.85639,0.7782443 2.275874,1.62897 C 17.928973,8.5951976 17.98454,9.1051584 17.98454,12 c 0,1.887554 -0.02882,2.691099 -0.11336,3.160589 -0.202577,1.12502 -0.752795,1.91626 -1.642178,2.361531 -0.496913,0.24878 -0.992762,0.371235 -1.69054,0.417498 -0.593586,0.03935 -2.896943,0.05689 -4.139424,0.03151 z M 14.8125,16.864681 c 0.678477,-0.100294 1.065518,-0.272867 1.428938,-0.637129 0.334693,-0.335468 0.505598,-0.698667 0.605913,-1.287654 0.104336,-0.612598 0.104336,-5.2671985 0,-5.8797965 C 16.747036,8.4711149 16.576131,8.1079158 16.241438,7.7724476 15.862007,7.392137 15.422982,7.2087753 14.677387,7.1192102 14.231135,7.0656039 9.7355397,7.0656494 9.3028846,7.1192646 8.5772774,7.2091827 8.1330836,7.3970579 7.7585618,7.7724476 7.4236065,8.1081792 7.2522298,8.4726267 7.1530593,9.0601015 c -0.1059214,0.6274665 -0.1059214,5.2523305 0,5.8797965 0.098792,0.585235 0.2701007,0.949059 0.6064312,1.287938 0.4588602,0.462336 1.0188816,0.643747 2.1203172,0.686848 0.1348553,0.0053 1.2317303,0.0063 2.4375003,0.0022 1.80333,-0.0061 2.246048,-0.01536 2.495192,-0.05219 z"
     id="path482" />
  <path
     style="fill:#ffffff;stroke-width:0.0288462"
     d="m 14.927885,9.4444632 c -0.324476,-0.1403276 -0.5095,-0.5523307 -0.38934,-0.8669651 0.06515,-0.1705895 0.226308,-0.3502301 0.374917,-0.4179117 0.152474,-0.069442 0.424734,-0.069268 0.578039,3.695e-4 0.236239,0.1073095 0.417533,0.3925518 0.416871,0.6558908 -5.89e-4,0.2343035 -0.209489,0.5342077 -0.438695,0.6298067 -0.13535,0.056453 -0.409901,0.055849 -0.541792,-0.00119 z"
     id="path521" />
  <path
     style="fill:#ffffff;stroke-width:0.0288462"
     d="M 11.451923,15.017231 C 10.104471,14.757353 9.1128858,13.68088 8.9528621,12.304228 8.793108,10.929898 9.6850017,9.5466128 11.019231,9.0993873 c 0.642232,-0.2152722 1.391385,-0.2095859 2.007414,0.015237 0.782651,0.2856322 1.384591,0.8371501 1.744299,1.5981847 0.535148,1.132215 0.322736,2.453748 -0.543885,3.383803 -0.369482,0.396526 -0.896752,0.713358 -1.43379,0.861551 -0.338627,0.09344 -1.009856,0.123001 -1.341346,0.05907 z m 0.908654,-1.039266 c 0.298763,-0.05421 0.514119,-0.141178 0.764869,-0.30889 1.038546,-0.694622 1.186748,-2.204681 0.302529,-3.082537 -0.34613,-0.343638 -0.686965,-0.512867 -1.168654,-0.580252 -0.195066,-0.027288 -0.308098,-0.027491 -0.507739,-9.11e-4 -0.485238,0.0646 -0.830691,0.234809 -1.179557,0.581163 C 10.192398,10.963433 9.9951923,11.446664 9.9951923,12 c 0,1.266601 1.1207517,2.203788 2.3653847,1.977965 z"
     id="path560" />
</svg>
