<?xml version="1.0" encoding="UTF-8" standalone="no"?>
<svg
   width="24"
   height="24"
   viewBox="0 0 24 24"
   version="1.1"
   id="svg27"
   sodipodi:docname="iconmonstr-steam-5.svg"
   inkscape:version="1.1 (c68e22c387, 2021-05-23)"
   xmlns:inkscape="http://www.inkscape.org/namespaces/inkscape"
   xmlns:sodipodi="http://sodipodi.sourceforge.net/DTD/sodipodi-0.dtd"
   xmlns="http://www.w3.org/2000/svg"
   xmlns:svg="http://www.w3.org/2000/svg">
  <defs
     id="defs31" />
  <sodipodi:namedview
     id="namedview29"
     pagecolor="#ffffff"
     bordercolor="#666666"
     borderopacity="1.0"
     inkscape:pageshadow="2"
     inkscape:pageopacity="0.0"
     inkscape:pagecheckerboard="0"
     showgrid="false"
     inkscape:zoom="33.708333"
     inkscape:cx="12"
     inkscape:cy="12"
     inkscape:window-width="1920"
     inkscape:window-height="1017"
     inkscape:window-x="-8"
     inkscape:window-y="32"
     inkscape:window-maximized="1"
     inkscape:current-layer="svg27" />
  <path
     d="M12 0c-6.627 0-12 5.373-12 12s5.373 12 12 12 12-5.373 12-12-5.373-12-12-12zm0 22c-4.738 0-8.71-3.317-9.735-7.749l3.752 1.578c.244 1.235 1.338 2.182 2.67 2.171 1.477-.014 2.662-1.211 2.672-2.682l.006-.003 3.087-2.301c1.975.021 3.548-1.571 3.548-3.506 0-1.937-1.572-3.508-3.508-3.508-1.915 0-3.47 1.535-3.506 3.441l-2.263 3.166c-.572-.012-1.087.145-1.535.438l-5.123-2.155c.555-4.994 4.797-8.89 9.935-8.89 5.514 0 10 4.486 10 10s-4.486 10-10 10zm-2.753-8.091l-1.322-.555c.249-.094.492-.137.738-.137 1.138 0 2.074.926 2.084 2.065.01 1.153-.912 2.094-2.066 2.104-.867.004-1.602-.513-1.928-1.248l1.324.556c.769.323 1.653-.039 1.977-.807.324-.768-.037-1.654-.807-1.978zm2.861-4.401c0-1.315 1.069-2.384 2.384-2.384s2.384 1.069 2.384 2.384c0 1.314-1.069 2.385-2.384 2.385s-2.384-1.07-2.384-2.385zm2.384 1.801c-.994 0-1.802-.807-1.802-1.8s.808-1.801 1.802-1.801c.993 0 1.8.809 1.8 1.801 0 .992-.807 1.8-1.8 1.8z"
     id="path25" />
  <path
     style="fill:#ffffff;stroke-width:0.0296663"
     d="M 11.451174,23.967545 C 7.7104506,23.80444 4.2404594,21.869671 2.1100121,18.759175 0.99853982,17.136403 0.32177844,15.314104 0.08457046,13.305315 c -0.07339916,-0.621578 -0.07339916,-1.989052 0,-2.61063 C 0.25380086,9.2615623 0.63126349,7.9693649 1.2457855,6.7194067 2.9569614,3.2388175 6.290138,0.77215951 10.10136,0.1659969 c 1.115252,-0.17737732 2.445126,-0.18876704 3.587694,-0.0307269 4.75005,0.65702736 8.699447,4.1906867 9.911761,8.8683887 0.27351,1.0553353 0.367162,1.8196143 0.367162,2.9963413 0,0.925514 -0.03808,1.384484 -0.178458,2.150803 -0.677273,3.697279 -3.054377,6.864762 -6.419927,8.554532 -1.496688,0.751455 -3.149604,1.192707 -4.687268,1.251282 -0.220272,0.0084 -0.473919,0.01923 -0.563659,0.02409 -0.08974,0.0049 -0.390111,-0.0011 -0.667491,-0.01316 z m 1.794809,-2.028724 c 2.323604,-0.313382 4.310034,-1.305609 5.921188,-2.95765 1.718687,-1.762303 2.702948,-4.014327 2.829368,-6.473695 C 22.140248,9.7117709 21.12604,7.0274089 19.167171,5.0188293 17.551266,3.3619167 15.586369,2.3819606 13.23115,2.0583483 12.74606,1.9916959 11.378029,1.9820559 10.902349,2.041938 8.5755504,2.3348528 6.648585,3.2494324 5.0172712,4.8351234 3.6790309,6.1359376 2.744765,7.7579988 2.2847605,9.5792766 2.2015366,9.9087818 2.0618047,10.690013 2.0618047,10.825806 c 0,0.08048 0.04456,0.10065 2.5557119,1.156917 l 2.555712,1.07501 0.2699988,-0.133936 c 0.354248,-0.175728 0.6006535,-0.247183 0.9884028,-0.286625 0.175086,-0.01781 0.3201537,-0.03496 0.3223728,-0.03811 0.00222,-0.0032 0.5055201,-0.70746 1.1184468,-1.565126 L 10.986862,9.4745399 11.019622,9.180744 c 0.04327,-0.3880132 0.100153,-0.6242587 0.226152,-0.9391829 0.199003,-0.4973915 0.450414,-0.872332 0.833271,-1.2426912 1.392665,-1.3472051 3.597986,-1.2975702 4.937383,0.1111257 0.48068,0.50555 0.79871,1.1347701 0.919661,1.819547 0.05045,0.2856214 0.05045,0.8713626 0,1.1569844 -0.08375,0.474165 -0.29742,0.99808 -0.571871,1.402227 -0.17354,0.255549 -0.53297,0.624394 -0.808478,0.829656 -0.537738,0.400631 -1.331345,0.67541 -1.950698,0.67541 -0.125928,0 -0.17375,0.01758 -0.301933,0.111 -0.08377,0.06105 -0.78008,0.579291 -1.547359,1.151645 l -1.395055,1.040646 -0.03684,0.291699 c -0.04704,0.372448 -0.178555,0.767278 -0.356,1.068792 C 10.79162,16.95706 10.316047,17.44118 10.042027,17.60007 9.5664804,17.875814 9.0904545,17.993445 8.545831,17.969797 7.8123874,17.93795 7.2399972,17.674348 6.7184307,17.128226 6.3951972,16.789775 6.1688663,16.386117 6.069063,15.970091 6.0488117,15.885673 6.016644,15.810248 5.9975798,15.80248 5.9785154,15.794711 5.1485785,15.445067 4.1532756,15.025494 3.1579728,14.60592 2.3209625,14.256119 2.2932528,14.248159 c -0.044328,-0.01273 -0.039814,0.02599 0.037566,0.32233 0.4632989,1.77426 1.4649622,3.451327 2.8192068,4.720148 1.7009391,1.593646 3.8080453,2.519546 6.1528174,2.703656 0.325074,0.02553 1.615786,-0.01132 1.94314,-0.05547 z M 8.9812462,17.370769 c 0.238115,-0.02303 0.6093888,-0.165475 0.8524209,-0.327043 0.4299429,-0.285825 0.7749969,-0.79245 0.8792439,-1.290945 0.06967,-0.333152 0.04412,-0.805937 -0.06011,-1.112484 -0.304501,-0.895542 -1.1828101,-1.490884 -2.1081683,-1.428974 -0.2465903,0.0165 -0.5640625,0.08588 -0.615621,0.134544 -0.011848,0.01118 0.2150987,0.118821 0.5043263,0.239196 0.8491316,0.353407 1.0564744,0.457403 1.2257468,0.614797 0.6344512,0.589926 0.6594152,1.542671 0.056225,2.145861 C 9.3443556,16.716675 8.797238,16.873163 8.3125932,16.746929 8.2193212,16.722639 7.8358224,16.573786 7.4603734,16.416155 7.0849241,16.258523 6.7699643,16.137326 6.7604625,16.146827 c -0.025717,0.02572 0.1229289,0.285137 0.2727818,0.476065 0.2394597,0.305097 0.6454137,0.575105 1.0348957,0.688331 0.1818073,0.05285 0.5421366,0.09826 0.6685688,0.08425 0.040791,-0.0045 0.1508315,-0.01563 0.2445342,-0.0247 z m 5.9725138,-5.50696 c 0.857803,-0.157688 1.622103,-0.873389 1.857619,-1.739498 0.08855,-0.3256453 0.08855,-0.9069075 0,-1.2325531 C 16.61999,8.1879243 16.059194,7.5515252 15.396634,7.2862843 14.672328,6.9963245 13.82486,7.0798101 13.17658,7.5049857 c -0.857592,0.5624538 -1.258411,1.6119234 -1.000386,2.6193253 0.21377,0.834616 0.949688,1.542481 1.796612,1.728124 0.22098,0.04844 0.746202,0.05453 0.980954,0.01137 z"
     id="path187" />
  <path
     style="fill:#ffffff;stroke-width:0.0296663"
     d="m 14.269468,11.283959 c -0.72697,-0.111204 -1.335103,-0.657705 -1.512722,-1.3594131 -0.146316,-0.5780416 0.03878,-1.2272973 0.474103,-1.6629582 0.3556,-0.3558798 0.768029,-0.5288232 1.261116,-0.5288232 0.607629,0 1.136573,0.2835576 1.476224,0.7913784 0.211793,0.3166571 0.288919,0.5793022 0.288919,0.9838917 0,0.4117303 -0.072,0.6595784 -0.283475,0.9757524 -0.241813,0.361541 -0.592856,0.620913 -1.003828,0.741691 -0.168737,0.04959 -0.550218,0.08144 -0.700337,0.05848 z"
     id="path226" />
</svg>
