<?xml version="1.0" encoding="UTF-8" standalone="no"?>
<svg
   width="24"
   height="24"
   viewBox="0 0 24 24"
   version="1.1"
   id="svg609"
   sodipodi:docname="iconmonstr-linkedin-5.svg"
   inkscape:version="1.1 (c68e22c387, 2021-05-23)"
   xmlns:inkscape="http://www.inkscape.org/namespaces/inkscape"
   xmlns:sodipodi="http://sodipodi.sourceforge.net/DTD/sodipodi-0.dtd"
   xmlns="http://www.w3.org/2000/svg"
   xmlns:svg="http://www.w3.org/2000/svg">
  <defs
     id="defs613" />
  <sodipodi:namedview
     id="namedview611"
     pagecolor="#ffffff"
     bordercolor="#666666"
     borderopacity="1.0"
     inkscape:pageshadow="2"
     inkscape:pageopacity="0.0"
     inkscape:pagecheckerboard="0"
     showgrid="false"
     inkscape:zoom="34.666667"
     inkscape:cx="11.985577"
     inkscape:cy="12.014423"
     inkscape:window-width="1920"
     inkscape:window-height="1017"
     inkscape:window-x="-8"
     inkscape:window-y="32"
     inkscape:window-maximized="1"
     inkscape:current-layer="svg609" />
  <path
     d="M12 2c5.514 0 10 4.486 10 10s-4.486 10-10 10-10-4.486-10-10 4.486-10 10-10zm0-2c-6.627 0-12 5.373-12 12s5.373 12 12 12 12-5.373 12-12-5.373-12-12-12zm-2 8c0 .557-.447 1.008-1 1.008s-1-.45-1-1.008c0-.557.447-1.008 1-1.008s1 .452 1 1.008zm0 2h-2v6h2v-6zm3 0h-2v6h2v-2.861c0-1.722 2.002-1.881 2.002 0v2.861h1.998v-3.359c0-3.284-3.128-3.164-4-1.548v-1.093z"
     id="path607" />
  <path
     style="fill:#ffffff;stroke-width:0.0288462"
     d="M 11.451923,23.968809 C 9.7431098,23.893023 8.1350815,23.468301 6.5913462,22.685004 5.3689018,22.064731 4.3837659,21.337912 3.4036636,20.333177 1.5069415,18.388786 0.37881663,15.961275 0.06724881,13.153846 c -0.04815521,-0.43391 -0.04815521,-1.873782 0,-2.307692 C 0.33505627,8.433034 1.1880689,6.3426868 2.6569379,4.5 3.0089769,4.0583694 3.9565656,3.0974158 4.3759119,2.7567811 6.165118,1.3034116 8.242708,0.39935198 10.442308,0.11699969 c 0.750392,-0.09632435 1.877084,-0.122376 2.567307,-0.05936197 2.439414,0.22270642 4.583636,1.08476438 6.519231,2.62097608 0.460858,0.365766 1.427692,1.3364048 1.814248,1.8213862 1.468969,1.8430021 2.321852,3.9330577 2.589657,6.346154 0.04816,0.43391 0.04816,1.873782 0,2.307692 -0.26795,2.414404 -1.127835,4.520199 -2.591403,6.346154 -0.511293,0.637892 -1.301075,1.419434 -1.956733,1.936318 -1.878294,1.480743 -4.395215,2.429841 -6.685459,2.520998 -0.210016,0.0084 -0.466223,0.01926 -0.569348,0.02422 -0.103125,0.005 -0.408173,-7.64e-4 -0.677885,-0.01273 z M 12.9375,21.967757 c 1.814235,-0.176427 3.49084,-0.808163 4.933004,-1.858731 2.337486,-1.70278 3.802416,-4.25592 4.098296,-7.14268 0.04562,-0.445101 0.04562,-1.487591 0,-1.932692 C 21.668531,8.1040693 20.170933,5.5309059 17.767888,3.8156709 16.332143,2.7908716 14.59231,2.1638579 12.777153,2.0170741 12.253759,1.9747495 11.219313,1.9978787 10.745192,2.0625067 8.7117865,2.3396829 6.940018,3.1371888 5.4129816,4.4626336 3.6977986,5.9513873 2.5160939,8.0495582 2.136476,10.280221 2.0265572,10.926113 1.9955043,11.304941 1.9955043,12 c 0,0.695059 0.031053,1.073888 0.1409717,1.719779 0.6283929,3.692483 3.3581391,6.775331 6.9657372,7.866779 1.1994578,0.362886 2.5961128,0.501703 3.8352868,0.381199 z"
     id="path652" />
  <path
     style="fill:#ffffff;stroke-width:0.0288462"
     d="M 8.7548077,8.9540321 C 8.5422878,8.897543 8.3198553,8.7401388 8.195186,8.558016 7.8558726,8.0623313 8.0195867,7.4148462 8.5580501,7.122898 8.727277,7.0311452 8.7590478,7.0240385 9,7.0240385 c 0.2409522,0 0.272723,0.00711 0.4419499,0.09886 C 9.8563992,7.3476073 10.063304,7.7928629 9.9538068,8.2244077 9.8615873,8.58786 9.5898985,8.8630371 9.2319202,8.9555628 9.0249093,9.0090683 8.9610917,9.0088636 8.7548077,8.9540321 Z"
     id="path691" />
  <path
     style="fill:#ffffff;stroke-width:0.0288462"
     d="M 8.0048077,12.995192 V 10.009615 H 9 9.9951923 v 2.985577 2.985577 H 9 8.0048077 Z"
     id="path730" />
  <path
     style="fill:#ffffff;stroke-width:0.0288462"
     d="M 11.004808,12.995192 V 10.009615 H 12 12.995192 l 0.0017,0.555289 c 0.0013,0.441293 0.0088,0.544131 0.03606,0.500938 0.403205,-0.637757 1.038083,-1.011375 1.779554,-1.047244 0.558415,-0.027013 1.032508,0.140457 1.412558,0.498977 0.328814,0.310186 0.504653,0.628491 0.659573,1.193963 l 0.07508,0.274039 0.0096,1.997596 0.0096,1.997596 H 15.99669 15.014464 v -1.530062 c 0,-1.28152 -0.0074,-1.56587 -0.04553,-1.750498 -0.08426,-0.407937 -0.300601,-0.72386 -0.58478,-0.853963 -0.190706,-0.08731 -0.514131,-0.08537 -0.711034,0.0043 -0.190082,0.08652 -0.402821,0.29722 -0.507536,0.502667 -0.168703,0.330987 -0.170349,0.350908 -0.170349,2.061548 v 1.566055 H 12 11.004808 Z"
     id="path769" />
</svg>
