<?xml version="1.0" encoding="UTF-8" standalone="no"?>
<svg
   width="24"
   height="24"
   viewBox="0 0 24 24"
   version="1.1"
   id="svg19"
   sodipodi:docname="iconmonstr-github-5.svg"
   inkscape:version="1.1 (c68e22c387, 2021-05-23)"
   xmlns:inkscape="http://www.inkscape.org/namespaces/inkscape"
   xmlns:sodipodi="http://sodipodi.sourceforge.net/DTD/sodipodi-0.dtd"
   xmlns="http://www.w3.org/2000/svg"
   xmlns:svg="http://www.w3.org/2000/svg">
  <defs
     id="defs23" />
  <sodipodi:namedview
     id="namedview21"
     pagecolor="#ffffff"
     bordercolor="#666666"
     borderopacity="1.0"
     inkscape:pageshadow="2"
     inkscape:pageopacity="0.0"
     inkscape:pagecheckerboard="0"
     showgrid="false"
     inkscape:zoom="23.835391"
     inkscape:cx="3.5451485"
     inkscape:cy="11.138898"
     inkscape:window-width="1920"
     inkscape:window-height="1017"
     inkscape:window-x="-8"
     inkscape:window-y="32"
     inkscape:window-maximized="1"
     inkscape:current-layer="svg19" />
  <path
     d="M12 2c5.514 0 10 4.486 10 10s-4.486 10-10 10-10-4.486-10-10 4.486-10 10-10zm0-2c-6.627 0-12 5.373-12 12s5.373 12 12 12 12-5.373 12-12-5.373-12-12-12zm0 6c-3.313 0-6 2.686-6 6 0 2.651 1.719 4.9 4.104 5.693.3.056.396-.13.396-.289v-1.117c-1.669.363-2.017-.707-2.017-.707-.272-.693-.666-.878-.666-.878-.544-.373.041-.365.041-.365.603.042.92.619.92.619.535.917 1.403.652 1.746.499.054-.388.209-.652.381-.802-1.333-.152-2.733-.667-2.733-2.965 0-.655.234-1.19.618-1.61-.062-.153-.268-.764.058-1.59 0 0 .504-.161 1.65.615.479-.133.992-.199 1.502-.202.51.002 1.023.069 1.503.202 1.146-.776 1.648-.615 1.648-.615.327.826.121 1.437.06 1.588.385.42.617.955.617 1.61 0 2.305-1.404 2.812-2.74 2.96.216.186.412.551.412 1.111v1.646c0 .16.096.347.4.288 2.383-.793 4.1-3.041 4.1-5.691 0-3.314-2.687-6-6-6z"
     id="path17" />
  <path
     style="fill:#ffffff;stroke-width:0.0296663"
     d="M 11.451174,23.967545 C 7.7104506,23.80444 4.2404594,21.869671 2.1100121,18.759175 0.99853982,17.136403 0.32177844,15.314104 0.08457046,13.305315 c -0.07339916,-0.621578 -0.07339916,-1.989052 0,-2.61063 C 0.25380086,9.2615623 0.63126349,7.9693649 1.2457855,6.7194067 2.9569614,3.2388175 6.290138,0.77215951 10.10136,0.1659969 c 1.115252,-0.17737732 2.445126,-0.18876704 3.587694,-0.0307269 4.75005,0.65702736 8.699447,4.1906867 9.911761,8.8683887 0.27351,1.0553353 0.367162,1.8196143 0.367162,2.9963413 0,0.927018 -0.0384,1.388586 -0.178937,2.150803 -0.374465,2.03096 -1.249172,3.901554 -2.575752,5.508347 -0.31543,0.382058 -1.111003,1.184012 -1.485229,1.497141 -2.0082,1.680341 -4.590837,2.706809 -7.045735,2.800326 -0.220272,0.0084 -0.473919,0.01923 -0.563659,0.02409 -0.08974,0.0049 -0.390111,-0.0011 -0.667491,-0.01316 z m 1.794809,-2.028724 c 2.323604,-0.313382 4.310034,-1.305609 5.921188,-2.95765 1.718687,-1.762303 2.702948,-4.014327 2.829368,-6.473695 0.143082,-2.7835117 -0.862765,-5.4608046 -2.802472,-7.4594189 -1.63286,-1.6824484 -3.586783,-2.6621794 -5.962917,-2.989911 -0.546464,-0.075372 -1.915836,-0.075372 -2.4623,0 C 9.7899254,2.1931657 8.9062359,2.4301445 8.0987923,2.7741752 4.8802422,4.145515 2.5939779,7.1067563 2.0922854,10.553991 c -0.3947163,2.71218 0.3312272,5.436355 2.0336365,7.631423 0.3179288,0.409934 1.1938395,1.297531 1.5848321,1.605978 1.688263,1.331837 3.4174469,2.011301 5.606922,2.203179 0.296023,0.02594 1.602698,-0.01184 1.928307,-0.05575 z"
     id="path292" />
  <path
     style="fill:#ffffff;stroke-width:0.0296663"
     d="M 9.7156984,17.524145 C 7.7620642,16.703272 6.4035646,14.969167 6.0852958,12.889988 5.7905899,10.964739 6.4666225,9.0074928 7.892499,7.657782 c 1.8147128,-1.717777 4.47429,-2.1246611 6.731368,-1.0298203 1.511309,0.7330908 2.675524,2.1268454 3.133408,3.7511983 0.158203,0.561231 0.215018,0.989512 0.215018,1.62084 0,0.631328 -0.05682,1.059609 -0.215018,1.62084 -0.500994,1.777286 -1.813151,3.23724 -3.527811,3.925174 -0.401931,0.161258 -0.508671,0.169454 -0.629768,0.04836 l -0.08672,-0.08672 -5.16e-4,-0.988685 c -5.61e-4,-1.07749 -0.01914,-1.252592 -0.16355,-1.541399 -0.0438,-0.0876 -0.114079,-0.195988 -0.156169,-0.240858 -0.04209,-0.04487 -0.06402,-0.08164 -0.04873,-0.0817 0.01529,-6e-5 0.148346,-0.01967 0.295681,-0.04357 1.622498,-0.263161 2.387158,-1.179629 2.389262,-2.863605 7.95e-4,-0.635824 -0.114016,-1.023718 -0.435721,-1.472108 l -0.152547,-0.212619 0.04074,-0.1570409 c 0.09987,-0.3850012 0.07068,-0.915276 -0.07116,-1.2927895 l -0.05394,-0.1435639 -0.20924,0.00566 c -0.322595,0.00873 -0.812287,0.1976621 -1.252155,0.4831093 l -0.188876,0.12257 -0.208495,-0.047421 c -0.787046,-0.1790096 -1.808074,-0.1790096 -2.59512,0 L 10.493945,9.081055 10.305069,8.9584861 C 9.8641629,8.6723654 9.3755505,8.4840831 9.051349,8.4753768 L 8.8405439,8.4697157 8.7734042,8.670625 C 8.6392165,9.0721688 8.6198356,9.52543 8.7202941,9.9127075 L 8.7612068,10.07043 8.626021,10.249059 c -0.1738039,0.229658 -0.3173602,0.532026 -0.3946719,0.831287 -0.048429,0.187461 -0.061199,0.327718 -0.060771,0.667491 0.00108,0.853697 0.198802,1.503063 0.6034173,1.981714 0.3958318,0.46826 1.0339111,0.777787 1.8544926,0.8996 l 0.245298,0.03641 -0.07244,0.07637 c -0.105081,0.110773 -0.218799,0.347736 -0.259946,0.541668 l -0.03578,0.168641 -0.209546,0.06837 C 9.9765757,15.624857 9.6433412,15.615929 9.387638,15.496271 9.1365054,15.378752 9.0027895,15.258711 8.818044,14.98493 8.5315051,14.560298 8.2542837,14.365299 7.8962866,14.336563 c -0.4257971,-0.03418 -0.4301957,0.153231 -0.010229,0.435838 0.1859563,0.125135 0.3777859,0.387175 0.5584871,0.762896 0.2263237,0.47058 0.5065403,0.692741 1.0092528,0.800151 0.2111297,0.04511 0.7266525,0.04067 0.9516415,-0.0082 l 0.08158,-0.01772 v 0.599066 0.599065 l -0.08672,0.08672 c -0.126997,0.126997 -0.243721,0.115023 -0.6846054,-0.07023 z"
     id="path331" />
</svg>
