<?xml version="1.0" encoding="UTF-8" standalone="no"?>
<svg
   width="24"
   height="24"
   viewBox="0 0 24 24"
   version="1.1"
   id="svg287"
   sodipodi:docname="iconmonstr-twitch-5.svg"
   inkscape:version="1.1 (c68e22c387, 2021-05-23)"
   xmlns:inkscape="http://www.inkscape.org/namespaces/inkscape"
   xmlns:sodipodi="http://sodipodi.sourceforge.net/DTD/sodipodi-0.dtd"
   xmlns="http://www.w3.org/2000/svg"
   xmlns:svg="http://www.w3.org/2000/svg">
  <defs
     id="defs291" />
  <sodipodi:namedview
     id="namedview289"
     pagecolor="#ffffff"
     bordercolor="#666666"
     borderopacity="1.0"
     inkscape:pageshadow="2"
     inkscape:pageopacity="0.0"
     inkscape:pagecheckerboard="0"
     showgrid="false"
     inkscape:zoom="34.666667"
     inkscape:cx="11.985577"
     inkscape:cy="12.014423"
     inkscape:window-width="1920"
     inkscape:window-height="1017"
     inkscape:window-x="-8"
     inkscape:window-y="32"
     inkscape:window-maximized="1"
     inkscape:current-layer="svg287" />
  <path
     d="M12 2c5.514 0 10 4.486 10 10s-4.486 10-10 10-10-4.486-10-10 4.486-10 10-10zm0-2c-6.627 0-12 5.373-12 12s5.373 12 12 12 12-5.373 12-12-5.373-12-12-12zm-4.925 7l-.806 2.06v8.418h2.866v1.522h1.612l1.522-1.522h2.328l3.134-3.134v-7.344h-10.656zm9.582 6.806l-1.791 1.791h-2.866l-1.522 1.522v-1.522h-2.418v-7.522h8.597v5.731zm-1.791-3.672v3.131h-1.075v-3.131h1.075zm-2.866 0v3.131h-1.075v-3.131h1.075z"
     id="path285" />
  <path
     style="fill:#ffffff;stroke-width:0.0288462"
     d="M 11.451923,23.968809 C 9.7431098,23.893023 8.1350815,23.468301 6.5913462,22.685004 5.3689018,22.064731 4.3837659,21.337912 3.4036636,20.333177 1.5070367,18.388884 0.3772669,15.957721 0.06740382,13.153846 0.01860941,12.712318 0.01863977,11.308225 0.06745371,10.846154 0.31757149,8.4785455 1.1901549,6.3400699 2.6569379,4.5 3.0089769,4.0583694 3.9565656,3.0974158 4.3759119,2.7567811 6.165118,1.3034116 8.242708,0.39935198 10.442308,0.11699969 c 0.750392,-0.09632435 1.877084,-0.122376 2.567307,-0.05936197 2.439414,0.22270642 4.583636,1.08476438 6.519231,2.62097608 0.460858,0.365766 1.427692,1.3364048 1.814248,1.8213862 1.468969,1.8430021 2.321852,3.9330577 2.589657,6.346154 0.04816,0.43391 0.04816,1.873782 0,2.307692 -0.26795,2.414404 -1.127835,4.520199 -2.591403,6.346154 -0.511293,0.637892 -1.301075,1.419434 -1.956733,1.936318 -1.878294,1.480743 -4.395215,2.429841 -6.685459,2.520998 -0.210016,0.0084 -0.466223,0.01926 -0.569348,0.02422 -0.103125,0.005 -0.408173,-7.64e-4 -0.677885,-0.01273 z M 12.9375,21.967757 c 1.814235,-0.176427 3.49084,-0.808163 4.933004,-1.858731 2.337486,-1.70278 3.802416,-4.25592 4.098296,-7.14268 0.04562,-0.445101 0.04562,-1.487591 0,-1.932692 C 21.668531,8.1040693 20.170933,5.5309059 17.767888,3.8156709 16.332143,2.7908716 14.59231,2.1638579 12.777153,2.0170741 12.253759,1.9747495 11.219313,1.9978787 10.745192,2.0625067 8.7117865,2.3396829 6.940018,3.1371888 5.4129816,4.4626336 3.6977986,5.9513873 2.5160939,8.0495582 2.136476,10.280221 2.0265572,10.926113 1.9955043,11.304941 1.9955043,12 c 0,0.695059 0.031053,1.073888 0.1409717,1.719779 0.6283929,3.692483 3.3581391,6.775331 6.9657372,7.866779 1.1994578,0.362886 2.5961128,0.501703 3.8352868,0.381199 z"
     id="path330" />
  <path
     style="fill:#ffffff;stroke-width:0.0288462"
     d="M 9.1586538,18.216346 V 17.451923 H 7.7163462 6.2740385 L 6.2733282,13.276442 6.272618,9.1009615 6.6815296,8.0552885 7.0904412,7.0096154 h 5.3177598 5.317761 v 3.6563496 3.656349 l -1.565003,1.564804 -1.565002,1.564805 h -1.168375 -1.168375 l -0.764015,0.764423 -0.764015,0.764423 H 9.9449158 9.1586538 Z m 2.1057692,-1.846154 0.764015,-0.764423 h 1.427917 1.427917 l 0.887191,-0.886844 0.887191,-0.886845 V 10.939984 8.0478884 l -4.305289,0.00731 -4.3052881,0.00731 -0.00732,3.7716346 -0.00732,3.771634 H 9.2450825 10.456729 V 16.3702 c 0,0.420433 0.0098,0.764423 0.02184,0.764423 0.01201,0 0.365645,-0.34399 0.785853,-0.764423 z"
     id="path369" />
  <path
     style="fill:#ffffff;stroke-width:0.0288462"
     d="m 10.947115,11.697115 v -1.543269 h 0.519231 0.519231 v 1.543269 1.54327 h -0.519231 -0.519231 z"
     id="path408" />
  <path
     style="fill:#ffffff;stroke-width:0.0288462"
     d="m 13.802885,11.697115 v -1.543269 h 0.51923 0.519231 v 1.543269 1.54327 h -0.519231 -0.51923 z"
     id="path447" />
</svg>
